<svg aria-hidden="true" style="position: absolute; width: 0; height: 0; overflow: hidden;" version="1.1" xmlns="http://www.w3.org/2000/svg" xmlns:xlink="http://www.w3.org/1999/xlink">
<defs>
<symbol id="icon-burger-menu" viewBox="0 0 32 32">
<path d="M5.333 24c-0.378 0-0.694-0.128-0.949-0.384s-0.383-0.572-0.384-0.949c-0.001-0.377 0.127-0.693 0.384-0.949s0.573-0.384 0.949-0.384h21.333c0.378 0 0.695 0.128 0.951 0.384s0.384 0.572 0.383 0.949c-0.001 0.377-0.129 0.694-0.384 0.951s-0.572 0.384-0.949 0.383h-21.333zM5.333 17.333c-0.378 0-0.694-0.128-0.949-0.384s-0.383-0.572-0.384-0.949c-0.001-0.377 0.127-0.693 0.384-0.949s0.573-0.384 0.949-0.384h21.333c0.378 0 0.695 0.128 0.951 0.384s0.384 0.572 0.383 0.949c-0.001 0.377-0.129 0.694-0.384 0.951s-0.572 0.384-0.949 0.383h-21.333zM5.333 10.667c-0.378 0-0.694-0.128-0.949-0.384s-0.383-0.572-0.384-0.949c-0.001-0.377 0.127-0.693 0.384-0.949s0.573-0.384 0.949-0.384h21.333c0.378 0 0.695 0.128 0.951 0.384s0.384 0.572 0.383 0.949c-0.001 0.377-0.129 0.694-0.384 0.951s-0.572 0.384-0.949 0.383h-21.333z"></path>
</symbol>
<symbol id="icon-close-btn" viewBox="0 0 32 32">
<path d="M15.029 18.229l-11.2 11.2c-0.419 0.419-0.952 0.629-1.6 0.629s-1.181-0.21-1.6-0.629c-0.419-0.419-0.629-0.952-0.629-1.6s0.21-1.181 0.629-1.6l11.2-11.2-11.2-11.2c-0.419-0.419-0.629-0.952-0.629-1.6s0.21-1.181 0.629-1.6c0.419-0.419 0.952-0.629 1.6-0.629s1.181 0.21 1.6 0.629l11.2 11.2 11.2-11.2c0.419-0.419 0.952-0.629 1.6-0.629s1.181 0.21 1.6 0.629c0.419 0.419 0.629 0.952 0.629 1.6s-0.21 1.181-0.629 1.6l-11.2 11.2 11.2 11.2c0.419 0.419 0.629 0.952 0.629 1.6s-0.21 1.181-0.629 1.6c-0.419 0.419-0.952 0.629-1.6 0.629s-1.181-0.21-1.6-0.629l-11.2-11.2z"></path>
</symbol>
</defs>
</svg>