<svg aria-hidden="true" style="position: absolute; width: 0; height: 0; overflow: hidden;" version="1.1" xmlns="http://www.w3.org/2000/svg" xmlns:xlink="http://www.w3.org/1999/xlink">
<defs>
<symbol id="icon-burger-menu" viewBox="0 0 32 32">
<path d="M5.333 24c-0.378 0-0.694-0.128-0.949-0.384s-0.383-0.572-0.384-0.949c-0.001-0.377 0.127-0.693 0.384-0.949s0.573-0.384 0.949-0.384h21.333c0.378 0 0.695 0.128 0.951 0.384s0.384 0.572 0.383 0.949c-0.001 0.377-0.129 0.694-0.384 0.951s-0.572 0.384-0.949 0.383h-21.333zM5.333 17.333c-0.378 0-0.694-0.128-0.949-0.384s-0.383-0.572-0.384-0.949c-0.001-0.377 0.127-0.693 0.384-0.949s0.573-0.384 0.949-0.384h21.333c0.378 0 0.695 0.128 0.951 0.384s0.384 0.572 0.383 0.949c-0.001 0.377-0.129 0.694-0.384 0.951s-0.572 0.384-0.949 0.383h-21.333zM5.333 10.667c-0.378 0-0.694-0.128-0.949-0.384s-0.383-0.572-0.384-0.949c-0.001-0.377 0.127-0.693 0.384-0.949s0.573-0.384 0.949-0.384h21.333c0.378 0 0.695 0.128 0.951 0.384s0.384 0.572 0.383 0.949c-0.001 0.377-0.129 0.694-0.384 0.951s-0.572 0.384-0.949 0.383h-21.333z"></path>
</symbol>
<symbol id="icon-close-btn" viewBox="0 0 32 32">
<path d="M15.029 18.229l-11.2 11.2c-0.419 0.419-0.952 0.629-1.6 0.629s-1.181-0.21-1.6-0.629c-0.419-0.419-0.629-0.952-0.629-1.6s0.21-1.181 0.629-1.6l11.2-11.2-11.2-11.2c-0.419-0.419-0.629-0.952-0.629-1.6s0.21-1.181 0.629-1.6c0.419-0.419 0.952-0.629 1.6-0.629s1.181 0.21 1.6 0.629l11.2 11.2 11.2-11.2c0.419-0.419 0.952-0.629 1.6-0.629s1.181 0.21 1.6 0.629c0.419 0.419 0.629 0.952 0.629 1.6s-0.21 1.181-0.629 1.6l-11.2 11.2 11.2 11.2c0.419 0.419 0.629 0.952 0.629 1.6s-0.21 1.181-0.629 1.6c-0.419 0.419-0.952 0.629-1.6 0.629s-1.181-0.21-1.6-0.629l-11.2-11.2z"></path>
</symbol>
<symbol id="icon-diamond" viewBox="0 0 32 32">
<path d="M25.411 14.145c-0.227-0.72-3.827-4.52-5.2-4.893-0.93-0.080-1.859-0.080-2.787 0-1.569-0.066-3.141-0.039-4.707 0.080-0.547 0-1.68-0.2-2.147 0.293-0.97 0.882-1.892 1.817-2.76 2.8-0.559 0.582-1.055 1.221-1.48 1.907-0.253 0.533 0.24 1.040 0.6 1.667s2.093 3.533 3.733 6.173c1.027 1.68 2.96 3.533 3.52 4.36 0.056 0.082 0.141 0.14 0.238 0.162s0.199 0.005 0.284-0.046 0.148-0.133 0.175-0.229c0.027-0.096 0.016-0.198-0.031-0.286 0.109-2.047 0.029-4.101-0.24-6.133-0.317-1.424-0.763-2.817-1.333-4.16 1.687 0.219 3.393 0.219 5.080 0-0.247 0.596-0.532 1.173-0.853 1.733-0.736 1.637-1.308 3.343-1.707 5.093-0.049 0.106-0.054 0.227-0.014 0.337s0.122 0.199 0.227 0.249c0.053 0.025 0.109 0.039 0.167 0.041s0.116-0.006 0.17-0.026c0.055-0.020 0.105-0.050 0.147-0.090s0.077-0.087 0.102-0.139c1.151-2 2.047-4.137 2.667-6.36 0.135-0.292 0.225-0.603 0.267-0.92 1.52-0.187 3.027-0.4 4.52-0.507-0.52 1.147-7.293 10.013-8.28 10.533-0.096 0.059-0.166 0.153-0.196 0.261s-0.017 0.225 0.035 0.325c0.052 0.1 0.141 0.176 0.248 0.213s0.223 0.032 0.327-0.013c1.107-0.547 6.293-7.027 7.053-8 0.893-1.24 2.613-2.96 2.173-4.427zM19.238 10.665c0.573 0 0.773 0 1.48 0.587-0.599 0.734-1.126 1.524-1.573 2.36-0.667-0.762-1.375-1.488-2.12-2.173-0.33-0.23-0.642-0.484-0.933-0.76 0.387-0.020 0.773-0.020 1.16 0 0.662 0.035 1.324 0.030 1.987-0.013zM12.718 10.798c2.040 0 1.893-0.213 1.733 0.107-0.107 0.107-2.387 2.387-2.52 2.667-0.154-0.874-0.404-1.728-0.747-2.547 0.48-0.218 1.010-0.301 1.533-0.24v0.013zM12.385 16.131c0.893 5.907 0.827 2.907 1.467 8.84-1.853-2.213-1.96-2.307-5.853-9.573 0 0-0.32-0.373-0.467-0.613 0.267-0.413 1-1.133 1.333-1.507 0.501-0.571 1.039-1.104 1.613-1.6 0.093 0.952 0.289 1.891 0.587 2.8h-1.987c-1.173-0.227-1.213 0.64-0.72 0.787l4 0.427c-0.013 0.173 0.027 0.307 0.027 0.373v0.067zM12.758 14.531c0.533-0.627 2.28-1.933 2.667-2.413 0.987 0.773 2.52 2.16 2.667 2.387-1.777 0.086-3.558 0.072-5.333-0.040v0.067zM20.078 14.411c0.351-0.878 0.798-1.714 1.333-2.493 0.908 0.737 1.77 1.524 2.587 2.36-1.333-0.027-2.667 0-3.92 0.067v0.067zM5.158 7.663c0.029 0.052 0.068 0.097 0.114 0.134s0.1 0.063 0.157 0.079c0.057 0.015 0.117 0.019 0.176 0.011s0.115-0.028 0.166-0.058c0.051-0.030 0.095-0.071 0.13-0.118s0.060-0.102 0.074-0.16c0.014-0.058 0.016-0.117 0.006-0.176s-0.031-0.114-0.063-0.164c-0.213-0.547-0.387-1.067-0.587-1.573-0.4-0.724-0.996-1.32-1.72-1.72-0.32-0.16-0.453 0.133-0.52 0.213-0.547 0.76 1.973 3.427 2.067 3.533zM26.839 7.61c1.893-2.133 0.893-0.64 2-3.067 0.107-0.24 0.107-0.4 0.067-0.467s-0.2-0.373-0.52-0.213c-0.724 0.401-1.32 0.997-1.72 1.72-0.253 0.507-0.427 1.013-0.64 1.56-0.034 0.054-0.057 0.113-0.067 0.176s-0.008 0.127 0.007 0.188c0.015 0.062 0.043 0.119 0.081 0.17s0.086 0.093 0.141 0.125c0.055 0.032 0.116 0.052 0.179 0.059s0.127 0.002 0.188-0.016 0.117-0.048 0.166-0.088c0.049-0.040 0.089-0.090 0.118-0.147zM5.251 18.051c0.4 0 0.68-0.493 0.173-0.893-0.642-0.378-1.363-0.602-2.107-0.653-0.613 0-3 0.093-3.28 0.627-0.093 0.16 0 0.293 0.12 0.453 0.36 0.387 4.347 0.467 5.093 0.467zM31.999 17.078c-1.426-0.687-3.057-0.816-4.573-0.36-0.283 0.097-0.555 0.222-0.813 0.373-0.493 0.387-0.24 0.907 0.173 0.907 1.524 0.102 3.055-0.015 4.547-0.347 0.185-0.031 0.368-0.076 0.547-0.133 0.12-0.187 0.12-0.28 0.12-0.44zM6.945 23.399c-1.76 1.52-1 0.147-4.267 4.267-0.107 0.227 0 0.68 0.573 0.453 1.758-1.011 3.252-2.422 4.36-4.12 0.060-0.091 0.086-0.2 0.072-0.308s-0.066-0.207-0.146-0.28c-0.081-0.073-0.185-0.114-0.294-0.116s-0.215 0.035-0.298 0.104zM26.893 24.733c-0.587-0.52-1.333-0.893-1.84-1.4s-1.067 0.173-0.667 0.6c0.751 1.028 1.578 1.992 2.48 2.893 0.24 0.227 1.867 1.333 2.173 1.333s0.427-0.2 0.28-0.507c0.013-0.107-2.040-2.587-2.427-2.92z"></path>
</symbol>
<symbol id="icon-star-2" viewBox="0 0 35 32">
<path fill="#fff" style="fill: var(--color1, #fff)" stroke-linejoin="round" stroke-linecap="round" stroke-miterlimit="4" stroke-width="1.3333" stroke="#000" d="M16.542 0.667l4.906 9.938 10.97 1.603-7.938 7.731 1.873 10.922-9.811-5.16-9.811 5.16 1.873-10.922-7.938-7.731 10.97-1.603 4.906-9.938z"></path>
</symbol>
<symbol id="icon-star" viewBox="0 0 35 32">
<path   stroke-linejoin="round" stroke-linecap="round" stroke-miterlimit="4" stroke-width="1.3333" stroke="#000" d="M16.542 0.667l4.906 9.938 10.97 1.603-7.938 7.731 1.873 10.922-9.811-5.16-9.811 5.16 1.873-10.922-7.938-7.731 10.97-1.603 4.906-9.938z"></path>
</symbol>
<symbol id="icon-user" viewBox="0 0 32 32">
<path  d="M15.699 0c4.164 0 8.157 1.654 11.101 4.598s4.598 6.937 4.598 11.101c0 4.164-1.654 8.157-4.598 11.101s-6.937 4.598-11.101 4.598c-4.164 0-8.157-1.654-11.101-4.598s-4.598-6.937-4.598-11.101c0-4.164 1.654-8.157 4.598-11.101s6.937-4.598 11.101-4.598zM15.699 21.566c-1.671-0.001-3.312 0.438-4.76 1.271s-2.651 2.033-3.489 3.479c2.357 1.836 5.261 2.832 8.249 2.828 2.988 0.003 5.89-0.993 8.247-2.83-0.838-1.445-2.041-2.644-3.488-3.477s-3.088-1.272-4.758-1.271zM15.699 2.249c-2.606 0.002-5.155 0.76-7.338 2.183s-3.905 3.45-4.958 5.834c-1.053 2.384-1.39 5.022-0.971 7.594s1.576 4.967 3.33 6.893c1.066-1.669 2.535-3.042 4.271-3.993s3.685-1.449 5.665-1.447c4.174 0 7.841 2.171 9.937 5.438 1.754-1.927 2.91-4.322 3.328-6.893s0.081-5.209-0.972-7.592-2.774-4.41-4.957-5.833c-2.182-1.423-4.731-2.182-7.336-2.184zM15.699 7.772c0.745-0.022 1.487 0.106 2.181 0.376s1.328 0.677 1.862 1.196c0.535 0.519 0.96 1.14 1.25 1.827s0.44 1.424 0.44 2.169c0 0.745-0.15 1.483-0.44 2.169s-0.715 1.308-1.25 1.827c-0.535 0.519-1.168 0.926-1.862 1.196s-1.436 0.398-2.181 0.376c-1.457-0.030-2.844-0.63-3.864-1.671s-1.591-2.441-1.591-3.898 0.571-2.857 1.591-3.898c1.020-1.041 2.407-1.639 3.864-1.669zM15.699 10.020c-0.88 0-1.724 0.35-2.347 0.972s-0.972 1.466-0.972 2.347c0 0.88 0.35 1.724 0.972 2.347s1.466 0.972 2.347 0.972c0.88 0 1.724-0.35 2.347-0.972s0.972-1.466 0.972-2.347c0-0.88-0.35-1.724-0.972-2.347s-1.466-0.972-2.347-0.972z"></path>
</symbol>
</defs>
</svg>