<svg width="24" height="24" viewBox="0 0 24 24" fill="none" xmlns="http://www.w3.org/2000/svg">
<path fill-rule="evenodd" clip-rule="evenodd" d="M19.0585 10.6085C18.8885 10.0685 16.1885 7.21853 15.1585 6.93853C14.4612 6.87853 13.7645 6.87853 13.0685 6.93853C11.8917 6.88921 10.713 6.90925 9.53851 6.99853C9.12851 6.99853 8.27851 6.84853 7.92851 7.21853C7.20078 7.8803 6.50975 8.58134 5.85851 9.31853C5.43924 9.75482 5.06718 10.2341 4.74851 10.7485C4.55851 11.1485 4.92851 11.5285 5.19851 11.9985C5.46851 12.4685 6.76851 14.6485 7.99851 16.6285C8.76851 17.8885 10.2185 19.2785 10.6385 19.8985C10.6804 19.9603 10.7444 20.0037 10.8172 20.0197C10.8901 20.0358 10.9664 20.0234 11.0304 19.985C11.0944 19.9466 11.1412 19.8851 11.1614 19.8133C11.1815 19.7414 11.1733 19.6646 11.1385 19.5985C11.2201 18.0629 11.1599 16.5231 10.9585 14.9985C10.7207 13.9303 10.386 12.886 9.95851 11.8785C11.2235 12.0425 12.5035 12.0425 13.7685 11.8785C13.5832 12.3252 13.3698 12.7585 13.1285 13.1785C12.5762 14.4063 12.1475 15.6859 11.8485 16.9985C11.8119 17.0782 11.8082 17.169 11.8381 17.2514C11.8681 17.3338 11.9293 17.401 12.0085 17.4385C12.0479 17.4571 12.0905 17.4676 12.134 17.4696C12.1775 17.4716 12.2209 17.4649 12.2618 17.4501C12.3027 17.4352 12.3402 17.4124 12.3723 17.3829C12.4043 17.3535 12.4302 17.318 12.4485 17.2785C13.312 15.7784 13.9839 14.1759 14.4485 12.5085C14.5495 12.2895 14.6175 12.0565 14.6485 11.8185C15.7885 11.6785 16.9185 11.5185 18.0385 11.4385C17.6485 12.2985 12.5685 18.9485 11.8285 19.3385C11.7564 19.3829 11.7038 19.453 11.6813 19.5346C11.6589 19.6163 11.6684 19.7034 11.7078 19.7784C11.7471 19.8534 11.8135 19.9106 11.8935 19.9385C11.9735 19.9663 12.0611 19.9628 12.1385 19.9285C12.9685 19.5185 16.8585 14.6585 17.4285 13.9285C18.0985 12.9985 19.3885 11.7085 19.0585 10.6085ZM14.4285 7.99853C14.8585 7.99853 15.0085 7.99853 15.5385 8.43853C15.0889 8.98902 14.6937 9.58179 14.3585 10.2085C13.8584 9.63684 13.3276 9.0927 12.7685 8.57853C12.5212 8.40637 12.2872 8.21583 12.0685 8.00853C12.3585 7.99386 12.6485 7.99386 12.9385 8.00853C13.4352 8.03453 13.9318 8.03119 14.4285 7.99853ZM9.53851 8.09853C11.0685 8.09853 10.9585 7.93853 10.8385 8.17853C10.7585 8.25853 9.04851 9.96853 8.94851 10.1785C8.83304 9.52311 8.64522 8.88253 8.38851 8.26853C8.7483 8.10492 9.14594 8.04268 9.53851 8.08853V8.09853ZM9.28851 12.0985C9.95851 16.5285 9.90851 14.2785 10.3885 18.7285C8.99851 17.0685 8.91851 16.9985 5.99851 11.5485C5.99851 11.5485 5.75851 11.2685 5.64851 11.0885C5.84851 10.7785 6.39851 10.2385 6.64851 9.95853C7.02451 9.53053 7.42785 9.13053 7.85851 8.75853C7.92851 9.47253 8.07551 10.1765 8.29851 10.8585H6.80851C5.92851 10.6885 5.89851 11.3385 6.26851 11.4485L9.26851 11.7685C9.25851 11.8985 9.28851 11.9985 9.28851 12.0485V12.0985ZM9.56851 10.8985C9.96851 10.4285 11.2785 9.44853 11.5685 9.08853C12.3085 9.66853 13.4585 10.7085 13.5685 10.8785C12.2357 10.9427 10.9003 10.9327 9.56851 10.8485V10.8985ZM15.0585 10.8085C15.3218 10.1502 15.6571 9.52302 16.0585 8.93853C16.7392 9.49119 17.3858 10.0812 17.9985 10.7085C16.9985 10.6885 15.9985 10.7085 15.0585 10.7585V10.8085ZM3.86851 5.74753C3.89012 5.78635 3.91931 5.82045 3.95434 5.84779C3.98937 5.87513 4.02953 5.89516 4.07244 5.90669C4.11536 5.91823 4.16015 5.92103 4.20416 5.91493C4.24818 5.90883 4.29052 5.89396 4.32869 5.8712C4.36685 5.84844 4.40005 5.81824 4.42633 5.78241C4.45261 5.74658 4.47143 5.70583 4.48167 5.66259C4.49191 5.61935 4.49337 5.5745 4.48596 5.53068C4.47854 5.48687 4.46241 5.44499 4.43851 5.40753C4.27851 4.99753 4.14851 4.60753 3.99851 4.22753C3.69828 3.68485 3.25119 3.23776 2.70851 2.93753C2.46851 2.81753 2.36851 3.03753 2.31851 3.09753C1.90851 3.66753 3.79851 5.66753 3.86851 5.74753ZM20.1295 5.70753C21.5495 4.10753 20.7995 5.22753 21.6295 3.40753C21.7095 3.22753 21.7095 3.10753 21.6795 3.05753C21.6495 3.00753 21.5295 2.77753 21.2895 2.89753C20.7465 3.19853 20.2995 3.64553 19.9995 4.18753C19.8095 4.56753 19.6795 4.94753 19.5195 5.35753C19.494 5.39767 19.4769 5.44257 19.4692 5.48951C19.4615 5.53646 19.4634 5.58447 19.4748 5.63065C19.4862 5.67683 19.5069 5.72023 19.5355 5.75821C19.5641 5.7962 19.6001 5.82799 19.6414 5.85166C19.6827 5.87534 19.7283 5.8904 19.7755 5.89595C19.8228 5.90149 19.8707 5.89741 19.9163 5.88394C19.9619 5.87047 20.0043 5.84789 20.041 5.81757C20.0776 5.78725 20.1077 5.74981 20.1295 5.70753ZM3.93851 13.5385C4.23851 13.5385 4.44851 13.1685 4.06851 12.8685C3.58702 12.5848 3.04608 12.417 2.48851 12.3785C2.02851 12.3785 0.238513 12.4485 0.0285134 12.8485C-0.0414866 12.9685 0.0285134 13.0685 0.118513 13.1885C0.388513 13.4785 3.37851 13.5385 3.93851 13.5385ZM23.9995 12.8085C22.9301 12.2931 21.7064 12.1967 20.5695 12.5385C20.3574 12.6115 20.1531 12.7053 19.9595 12.8185C19.5895 13.1085 19.7795 13.4985 20.0895 13.4985C21.2328 13.5751 22.3811 13.4875 23.4995 13.2385C23.6384 13.2149 23.7754 13.1814 23.9095 13.1385C23.9995 12.9985 23.9995 12.9285 23.9995 12.8085ZM5.20851 17.5495C3.88851 18.6895 4.45851 17.6595 2.00851 20.7495C1.92851 20.9195 2.00851 21.2595 2.43851 21.0895C3.75674 20.3315 4.87719 19.2728 5.70851 17.9995C5.75361 17.9316 5.77279 17.8497 5.76254 17.7688C5.75229 17.6879 5.7133 17.6133 5.65268 17.5588C5.59206 17.5042 5.51385 17.4733 5.43232 17.4716C5.35078 17.4699 5.27135 17.4975 5.20851 17.5495ZM20.1695 18.5495C19.7295 18.1595 19.1695 17.8795 18.7895 17.4995C18.4095 17.1195 17.9895 17.6295 18.2895 17.9495C18.8528 18.7202 19.4728 19.4435 20.1495 20.1195C20.3295 20.2895 21.5495 21.1195 21.7795 21.1195C22.0095 21.1195 22.0995 20.9695 21.9895 20.7395C21.9995 20.6595 20.4595 18.7995 20.1695 18.5495Z" fill="white"/>
</svg>
